# xmcd
#
# Track frame offsets:
#	150
#	24450
#	43350
#	69075
#	113025
#	150975
#	194175
#
# Disc length: 3008 seconds
#
# Revision: 2
# Processed by: cddbd v1.5.1PL2 Copyright (c) Steve Scherf et al.
# Submitted via: EasyCDDAExtractor 8.0.2.1
#
DISCID=580bbe07
DTITLE=Styx - The Grand Illusion Tour in Chicago in 1976
DYEAR=1976
DGENRE=Hard Rock
TTITLE0=The Grand Illusion 
TTITLE1=Lady 
TTITLE2=Fooling Yourself (Angry Young Man) 
TTITLE3=Suite Madam Blue
TTITLE4=Come Sail Away 
TTITLE5=Midnight Ride
TTITLE6=Miss America 
EXTD=
EXTT0=
EXTT1=
EXTT2=
EXTT3=
EXTT4=
EXTT5=
EXTT6=
PLAYORDER=
